<svg xmlns="http://www.w3.org/2000/svg" viewBox="0 0 1440 320"><path fill="#1a1a1a" fill-opacity="1" d="M0,32L20,42.7C40,53,80,75,120,74.7C160,75,200,53,240,69.3C280,85,320,139,360,149.3C400,160,440,128,480,122.7C520,117,560,139,600,165.3C640,192,680,224,720,224C760,224,800,192,840,170.7C880,149,920,139,960,128C1000,117,1040,107,1080,90.7C1120,75,1160,53,1200,69.3C1240,85,1280,139,1320,133.3C1360,128,1400,64,1420,32L1440,0L1440,320L1420,320C1400,320,1360,320,1320,320C1280,320,1240,320,1200,320C1160,320,1120,320,1080,320C1040,320,1000,320,960,320C920,320,880,320,840,320C800,320,760,320,720,320C680,320,640,320,600,320C560,320,520,320,480,320C440,320,400,320,360,320C320,320,280,320,240,320C200,320,160,320,120,320C80,320,40,320,20,320L0,320Z"></path></svg>