<svg xmlns="http://www.w3.org/2000/svg" viewBox="0 0 1440 320"><path fill="#1a1a1a" fill-opacity="1" d="M0,64L16,53.3C32,43,64,21,96,32C128,43,160,85,192,112C224,139,256,149,288,128C320,107,352,53,384,58.7C416,64,448,128,480,133.3C512,139,544,85,576,74.7C608,64,640,96,672,117.3C704,139,736,149,768,133.3C800,117,832,75,864,101.3C896,128,928,224,960,218.7C992,213,1024,107,1056,80C1088,53,1120,107,1152,106.7C1184,107,1216,53,1248,32C1280,11,1312,21,1344,21.3C1376,21,1408,11,1424,5.3L1440,0L1440,0L1424,0C1408,0,1376,0,1344,0C1312,0,1280,0,1248,0C1216,0,1184,0,1152,0C1120,0,1088,0,1056,0C1024,0,992,0,960,0C928,0,896,0,864,0C832,0,800,0,768,0C736,0,704,0,672,0C640,0,608,0,576,0C544,0,512,0,480,0C448,0,416,0,384,0C352,0,320,0,288,0C256,0,224,0,192,0C160,0,128,0,96,0C64,0,32,0,16,0L0,0Z"></path></svg>